<?xml version="1.0" encoding="utf-8"?>
<!-- Generator: Adobe Illustrator 23.0.2, SVG Export Plug-In . SVG Version: 6.00 Build 0)  -->
<svg version="1.1" id="Layer_1" xmlns="http://www.w3.org/2000/svg" xmlns:xlink="http://www.w3.org/1999/xlink" x="0px" y="0px"
	 viewBox="0 0 248.1 46" style="enable-background:new 0 0 248.1 46;" xml:space="preserve">
<style type="text/css">
	.st0{fill:#E20613;}
	.st1{fill:#FFFFFF;}
</style>
<circle class="st0" cx="225.3" cy="23.2" r="22.8"/>
<rect x="74.6" y="31.3" class="st0" width="125.4" height="11.6"/>
<path class="st1" d="M0,21h6.6c0,0.7,0.3,1.2,0.8,1.5c0.6,0.3,2.2,0.5,5,0.5c1.5,0,2.6-0.1,3.4-0.3c1-0.2,1.5-0.7,1.5-1.5
	c0-0.9-0.6-1.4-1.8-1.5c-0.6-0.1-1.7-0.1-3.3-0.1H9.1c-2.7,0-4.7-0.2-6-0.7c-1.9-0.7-2.9-2.4-2.9-5c0-3.1,1.1-4.9,3.2-5.6
	C5,7.8,7.9,7.6,11.8,7.6c2.8,0,5,0.1,6.5,0.3c2.2,0.3,3.6,1.2,4.1,2.8c0.2,0.6,0.4,1.4,0.4,2.5h-6.6c-0.1-0.5-0.4-0.9-0.9-1.1
	c-0.5-0.2-1.6-0.3-3.4-0.3c-1.7,0-3,0.1-3.9,0.3s-1.4,0.6-1.4,1.3c0,0.6,0.4,1,1.2,1.2c0.5,0.1,1.5,0.2,2.9,0.2h4.4
	c2.4,0,4.2,0.2,5.4,0.6c1.2,0.4,2.1,1.1,2.5,2c0.4,0.8,0.6,1.9,0.6,3.3c0,1.6-0.3,2.8-0.8,3.7c-0.5,0.9-1.4,1.6-2.6,1.9
	c-1.7,0.5-4.8,0.8-9.4,0.8c-2.6,0-4.5-0.1-5.9-0.3c-2.2-0.3-3.7-1.2-4.5-2.8C0.2,23.3,0,22.3,0,21"/>
<path class="st1" d="M42.8,26.7v-3.3c-0.2,0.8-0.5,1.4-0.8,1.9c-0.6,0.9-1.8,1.4-3.4,1.7c-1,0.1-2.2,0.2-3.7,0.2
	c-2.1,0-3.8-0.1-5-0.3c-1.7-0.3-2.8-1.1-3.4-2.4c-0.4-0.8-0.5-1.9-0.5-3.4c0-1.3,0.1-2.3,0.4-3c0.3-0.8,0.7-1.4,1.3-1.9
	c1-0.8,2.6-1.2,4.8-1.3c1.1-0.1,2.4-0.1,3.9-0.1c1.9,0,3.2,0.1,4,0.3s1.4,0.6,1.8,1.1c0.1,0.2,0.3,0.5,0.4,0.9V15
	c0-1-0.1-1.7-0.3-2.1c-0.2-0.5-0.7-0.8-1.4-0.9c-0.7-0.1-1.9-0.2-3.7-0.2c-1.6,0-2.7,0.1-3.1,0.2c-0.7,0.2-1.1,0.6-1.1,1.4h-6.3
	c0.1-1.2,0.3-2.2,0.6-2.8c0.5-0.9,1.4-1.7,2.8-2.2c0.7-0.3,1.7-0.5,2.9-0.6c1.3-0.1,3.1-0.2,5.5-0.2c2.1,0,3.9,0.1,5.3,0.3
	c2.4,0.3,3.9,1.4,4.7,3.2c0.4,0.9,0.6,1.8,0.6,2.7v1.3v11.6H42.8L42.8,26.7z M37.2,18.7c-1.4,0-2.5,0.1-3.1,0.2
	c-1.2,0.2-1.8,0.9-1.8,1.9c0,1.1,0.6,1.8,1.9,2c0.4,0.1,1.7,0.1,3.8,0.1c1.5,0,2.5-0.1,3.1-0.2c1.1-0.2,1.7-0.9,1.7-2
	c0-1.2-0.8-1.9-2.4-2C39.3,18.7,38.3,18.7,37.2,18.7"/>
<path class="st1" d="M66.9,18.7h4.8v1.5c0,1.5-0.1,2.6-0.3,3.4c-0.3,1.4-1.3,2.4-2.8,3c-1.1,0.4-2.6,0.6-4.4,0.6
	c-2.6,0-4.5-0.2-5.6-0.5c-0.7-0.2-1.4-0.6-2-1.2s-1-1.2-1.2-1.9c-0.2-0.7-0.4-1.8-0.4-3.3v-7.6h-3.2V8H55V3.6h6.4V8h10.3v4.7H61.4
	v6.2c0,1.2,0.1,2,0.4,2.4c0.4,0.6,1.1,0.9,2.3,0.9c1.3,0,2.1-0.3,2.5-0.9c0.2-0.3,0.3-1,0.3-1.9C66.9,19.5,66.9,18.7,66.9,18.7z"/>
<path class="st1" d="M86.4,7.6c3,0,5.4,0.2,7.3,0.5c1,0.2,1.9,0.6,2.7,1.1c0.8,0.6,1.3,1.2,1.6,2c0.4,1,0.6,2.9,0.6,5.6
	c0,2.6-0.1,4.4-0.3,5.5c-0.4,2.2-1.8,3.6-4.1,4.2c-1.5,0.4-4.3,0.6-8.2,0.6c-3.1,0-5.5-0.2-7.2-0.6c-1-0.2-1.8-0.6-2.5-1.2
	s-1.2-1.3-1.5-2.2c-0.3-0.8-0.5-1.8-0.5-2.9c0-0.9-0.1-1.8-0.1-2.9c0-2.6,0.1-4.4,0.4-5.4c0.6-2.1,2.2-3.4,4.7-3.9
	C81,7.7,83.3,7.6,86.4,7.6 M86.2,12.7c-2.2,0-3.7,0.2-4.4,0.6c-0.6,0.4-0.9,0.9-1.1,1.6c-0.1,0.5-0.2,1.4-0.2,2.6
	c0,1.3,0.1,2.2,0.3,2.7c0.3,0.9,1.1,1.5,2.2,1.7c0.7,0.1,1.9,0.2,3.4,0.2c1.4,0,2.4,0,3.1-0.1c1.3-0.2,2.1-0.7,2.5-1.7
	c0.2-0.5,0.3-1.4,0.3-2.8c0-1.5-0.1-2.6-0.4-3.1c-0.4-0.8-1.2-1.4-2.4-1.5C88.8,12.7,87.7,12.7,86.2,12.7"/>
<polygon class="st1" points="108.4,26.7 99.9,8 107.1,8 112.5,21.5 118,8 125.1,8 116.7,26.7 "/>
<path class="st1" d="M127.1,0h6.3v5h-6.3C127.1,5,127.1,0,127.1,0z M127.1,8h6.3v18.7h-6.3C127.1,26.7,127.1,8,127.1,8z"/>
<path class="st1" d="M152.9,18.7h-4.4c-0.1-0.8-0.4-1.3-1.1-1.5c-0.5-0.1-1.4-0.2-2.6-0.2c-1.3,0-2.2,0.1-2.7,0.4
	c-0.4,0.2-0.7,0.6-0.9,1.2c-0.1,0.4-0.2,1-0.2,1.7c0,0.9,0.1,1.6,0.3,2c0.3,0.6,0.8,1,1.6,1.1c0.5,0.1,1.2,0.1,2,0.1
	c1.7,0,2.7-0.2,3.1-0.5c0.3-0.3,0.5-0.7,0.6-1.3h4.4c0,1.9-0.5,3.3-1.4,4c-0.5,0.5-1.2,0.8-1.9,0.9c-1.2,0.3-2.7,0.4-4.6,0.4
	c-2.1,0-3.8-0.1-5-0.4c-1.5-0.4-2.4-1.2-2.9-2.6c-0.3-0.9-0.5-2.2-0.5-3.7c0-2.9,0.6-4.8,1.9-5.7c0.5-0.4,1.3-0.7,2.3-0.8
	c1-0.2,2.3-0.3,3.9-0.3c2.1,0,3.8,0.2,5.1,0.5c0.7,0.2,1.3,0.5,1.8,1s0.8,1,1,1.7C152.8,17.1,152.9,17.8,152.9,18.7"/>
<path class="st1" d="M163.2,13.4c2.1,0,3.7,0.1,5,0.4c0.7,0.1,1.3,0.4,1.8,0.8c0.5,0.4,0.9,0.8,1.1,1.4c0.3,0.7,0.4,2,0.4,3.9
	c0,1.8-0.1,3.1-0.2,3.8c-0.3,1.5-1.2,2.5-2.8,2.9c-1.1,0.3-3,0.4-5.7,0.4c-2.1,0-3.8-0.1-5-0.4c-0.7-0.1-1.2-0.4-1.7-0.9
	c-0.5-0.4-0.8-0.9-1-1.5s-0.3-1.2-0.3-2c0-0.6,0-1.3,0-2c0-1.8,0.1-3,0.3-3.7c0.4-1.4,1.5-2.3,3.2-2.7
	C159.4,13.5,161,13.4,163.2,13.4 M163,17c-1.6,0-2.6,0.1-3,0.4c-0.4,0.2-0.6,0.6-0.8,1.1c-0.1,0.4-0.1,1-0.1,1.8
	c0,0.9,0.1,1.5,0.2,1.9c0.2,0.6,0.7,1,1.5,1.2c0.5,0.1,1.3,0.1,2.4,0.1c1,0,1.7,0,2.1-0.1c0.9-0.1,1.5-0.5,1.7-1.2
	c0.1-0.4,0.2-1,0.2-1.9c0-1-0.1-1.8-0.2-2.2c-0.2-0.6-0.8-0.9-1.7-1.1C164.8,17,164.1,17,163,17"/>
<path class="st1" d="M173.8,26.7v-13h4.2v2.6c0.2-0.6,0.4-1.1,0.6-1.4c0.7-1,2.2-1.6,4.4-1.6c3,0,4.9,1,5.5,3c0.3-1,0.8-1.8,1.5-2.3
	c0.8-0.5,2-0.7,3.6-0.7c2.6,0,4.4,0.6,5.4,1.9c0.7,0.9,1.1,2.3,1.1,4.1v7.2h-4.3v-6.8c0-1.1-0.3-1.9-0.8-2.3
	c-0.4-0.3-1.2-0.4-2.3-0.4c-1.3,0-2.3,0.2-2.7,0.7c-0.3,0.3-0.5,0.7-0.6,1.2c-0.1,0.3-0.1,0.8-0.1,1.4v6.2H185V20
	c0-0.7,0-1.2-0.1-1.5c-0.2-0.7-0.6-1.1-1.2-1.3c-0.4-0.1-1-0.2-1.9-0.2c-1.4,0-2.3,0.3-2.8,0.8c-0.3,0.3-0.5,0.7-0.6,1.1
	c-0.1,0.2-0.1,0.6-0.1,1v6.6L173.8,26.7L173.8,26.7z"/>
<polygon class="st1" points="76.6,33.5 78.9,33.5 81.2,39.3 83.1,33.5 85.9,33.5 87.9,39.3 90.1,33.5 92.5,33.5 89.4,41.1 
	86.2,41.1 84.5,35.7 82.7,41.1 79.7,41.1 "/>
<path class="st1" d="M91.2,41.1l4.3-7.6h3.1l4.2,7.6h-2.5l-0.8-1.4h-4.9l-0.7,1.4H91.2z M95.4,38.2h3.3l-1.7-3L95.4,38.2z"/>
<polygon class="st1" points="104.8,41.1 104.8,35.4 101.4,35.4 101.4,33.5 110.6,33.5 110.6,35.4 107.1,35.4 107.1,41.1 "/>
<path class="st1" d="M118.6,38.2h2.3v0.3c0,0.4,0,0.8-0.1,1.1s-0.1,0.5-0.3,0.7c-0.3,0.4-0.8,0.6-1.4,0.7c-0.5,0.1-1.7,0.1-3.5,0.1
	c-1,0-1.8,0-2.3-0.1c-1-0.1-1.6-0.6-1.9-1.3c-0.1-0.4-0.2-0.8-0.2-1.2s0-0.9,0-1.4c0-0.9,0-1.5,0.1-1.9s0.3-0.8,0.6-1.1
	c0.3-0.3,0.7-0.4,1.2-0.5s1.4-0.2,2.7-0.2c1.1,0,2,0,2.5,0s1,0.1,1.3,0.2c0.3,0.1,0.5,0.2,0.7,0.4c0.3,0.4,0.5,1,0.5,1.8V36h-2.2
	c0-0.2,0-0.4-0.1-0.5c-0.1-0.2-0.3-0.3-0.6-0.4c-0.2,0-0.7-0.1-1.5-0.1c-1.2,0-1.8,0-2,0.1c-0.4,0.1-0.7,0.3-0.8,0.6
	c-0.1,0.2-0.1,0.7-0.1,1.5s0.1,1.3,0.3,1.6c0.2,0.2,0.5,0.3,1,0.3c0.3,0,0.6,0,1,0c0.8,0,1.3,0,1.6,0c0.7,0,1.1-0.2,1.2-0.5
	C118.6,38.7,118.6,38.5,118.6,38.2"/>
<polygon class="st1" points="121.8,41.1 121.8,33.5 124.1,33.5 124.1,36.3 129.4,36.3 129.4,33.5 131.8,33.5 131.8,41.1 129.4,41.1 
	129.4,38.2 124.1,38.2 124.1,41.1 "/>
<path class="st1" d="M144.4,38.2h2.3v0.3c0,0.4,0,0.8-0.1,1.1s-0.1,0.5-0.3,0.7c-0.3,0.4-0.8,0.6-1.4,0.7c-0.6,0.1-1.7,0.1-3.5,0.1
	c-1,0-1.8,0-2.3-0.1c-1-0.1-1.6-0.6-1.9-1.3c-0.1-0.4-0.2-0.8-0.2-1.2s0-0.9,0-1.4c0-0.9,0-1.5,0.1-1.9s0.3-0.8,0.6-1.1
	s0.7-0.4,1.2-0.5s1.4-0.2,2.7-0.2c1.1,0,2,0,2.5,0s1,0.1,1.3,0.2s0.5,0.2,0.7,0.4c0.3,0.4,0.5,1,0.5,1.8V36h-2.2
	c0-0.2,0-0.4-0.1-0.5c-0.1-0.2-0.3-0.3-0.6-0.4c-0.2,0-0.7-0.1-1.5-0.1c-1.2,0-1.8,0-2,0.1c-0.4,0.1-0.7,0.3-0.8,0.6
	c-0.1,0.2-0.1,0.7-0.1,1.5s0.1,1.3,0.3,1.6c0.2,0.2,0.5,0.3,1,0.3c0.3,0,0.6,0,1,0c0.8,0,1.3,0,1.6,0c0.7,0,1.1-0.2,1.2-0.5
	C144.4,38.7,144.4,38.5,144.4,38.2"/>
<polygon class="st1" points="147.7,33.5 156.2,33.5 156.2,35.2 150,35.2 150,36.5 155.8,36.5 155.8,38 150,38 150,39.4 156.3,39.4 
	156.3,41.1 147.7,41.1 "/>
<polygon class="st1" points="157.2,41.1 157.2,33.5 160.9,33.5 165.5,39.3 165.4,33.5 167.6,33.5 167.6,41.1 163.9,41.1 159.3,35.4 
	159.4,41.1 "/>
<polygon class="st1" points="171.6,41.1 171.6,35.4 168.2,35.4 168.2,33.5 177.3,33.5 177.3,35.4 173.9,35.4 173.9,41.1 "/>
<path class="st1" d="M175.9,41.1l4.3-7.6h3.1l4.2,7.6H185l-0.8-1.4h-4.9l-0.7,1.4H175.9z M180.1,38.2h3.3l-1.7-3L180.1,38.2z"/>
<path class="st1" d="M187.8,41.1v-7.6h6.6c1,0,1.7,0.1,2.1,0.3c0.4,0.2,0.6,0.4,0.8,0.8c0.1,0.3,0.2,0.8,0.2,1.4
	c0,0.9-0.2,1.5-0.6,1.8c-0.2,0.2-0.6,0.3-1,0.3c-0.1,0-0.3,0-0.5,0.1c0.2,0,0.3,0,0.4,0c0.6,0,0.9,0.1,1.1,0.2
	c0.2,0.1,0.3,0.3,0.4,0.5c0.1,0.2,0.1,0.5,0.1,0.9V41H195v-0.9c0-0.4-0.1-0.7-0.3-0.8c-0.1-0.1-0.3-0.1-0.5-0.1c-0.1,0-0.2,0-0.5,0
	h-3.6v1.9L187.8,41.1L187.8,41.1z M190.1,37.3h3.6c0.5,0,0.8,0,1-0.1s0.4-0.3,0.4-0.7c0-0.2,0-0.4,0-0.6c0-0.3-0.2-0.4-0.4-0.5
	c-0.1,0-0.4-0.1-0.8-0.1h-3.7L190.1,37.3L190.1,37.3z"/>
<path class="st1" d="M56.8,40v-8.7h0.8v3.5c0.1-0.2,0.3-0.5,0.5-0.6c0.4-0.3,1.1-0.4,2.3-0.4c1.1,0,1.9,0.1,2.4,0.3
	c0.4,0.1,0.7,0.4,0.9,0.8c0.2,0.5,0.3,1.1,0.3,2s-0.1,1.6-0.3,2s-0.5,0.7-0.9,0.8c-0.5,0.2-1.3,0.3-2.4,0.3c-0.8,0-1.4,0-1.8-0.2
	c-0.5-0.1-0.8-0.4-1-0.8v1L56.8,40L56.8,40z M60.3,34.6c-0.9,0-1.5,0.1-1.8,0.2c-0.2,0.1-0.4,0.2-0.5,0.3s-0.2,0.4-0.3,0.6
	c-0.1,0.3-0.1,0.7-0.1,1.3c0,1,0.1,1.6,0.4,1.9c0.2,0.2,0.4,0.3,0.8,0.4c0.3,0.1,0.9,0.1,1.5,0.1c0.9,0,1.5-0.1,1.8-0.2
	c0.2-0.1,0.4-0.2,0.5-0.3s0.2-0.4,0.3-0.6C63,38,63,37.6,63,37c0-1-0.1-1.6-0.4-1.9c-0.2-0.2-0.4-0.3-0.8-0.4
	C61.6,34.6,61,34.6,60.3,34.6"/>
<path class="st1" d="M63.9,33.9h0.9l2.8,5.5l2.5-5.5H71l-3,6.6c-0.3,0.8-0.6,1.3-0.8,1.5c-0.4,0.6-1.1,0.9-2,0.9c-0.1,0-0.2,0-0.4,0
	v-0.8c0.1,0,0.2,0,0.3,0c0.5,0,0.9-0.1,1.2-0.4c0.2-0.2,0.5-0.6,0.8-1.3l0.2-0.5H67L63.9,33.9z"/>
<rect x="129.2" y="22.6" class="st0" width="4.2" height="4.2"/>
<path class="st1" d="M223,26.4h-15.5v-3.9c0-1.4,0.4-2.3,1.4-2.7c0.7-0.4,1-0.4,3.1-0.6l5-0.4c1-0.1,1.2-0.1,1.7-0.2
	c0.4-0.1,0.7-0.6,0.7-1.2c0-0.7-0.1-1.1-0.6-1.2c-0.4-0.1-0.7-0.2-3.4-0.2c-2.3,0-2.7,0-3.3,0.2c-0.6,0.2-0.8,0.7-0.8,1.5v0.4h-3.6
	V17c0-1.1,0-1.2,0.2-1.8c0.4-1,1.2-1.5,2.7-1.7c1.2-0.1,2.9-0.1,5-0.1c3.9,0,5.1,0.1,6.1,0.6c1,0.6,1.4,1.5,1.4,3.4
	c0,2-0.4,3.1-1.5,3.6c-0.7,0.4-1.5,0.6-3.2,0.7l-5,0.2c-1.4,0.1-1.5,0.1-1.7,0.2c-0.2,0.2-0.4,0.6-0.4,1.1c0,0.1,0,0.2,0,0.6h11.8
	C223,23.8,223,26.4,223,26.4z"/>
<path class="st1" d="M229.9,22.5L229.9,22.5c0,0.4,0,0.7,0.2,0.8c0.4,0.4,0.4,0.4,4.3,0.6c2.7,0,2.7,0,3.2-0.2
	c0.4-0.2,0.6-0.7,0.6-1.7c0-1.4-0.6-1.8-2.4-1.7c0,0-0.7,0-1.4,0s-1.2,0-1.7,0c-2,0-2.5,0.1-2.7,1h-3.3l0.1-7.7h14.4v2.6H230v2.9
	c0.6-1.1,1.2-1.4,4.8-1.4c3.2,0,4.8,0.1,5.6,0.4c1.2,0.6,1.8,1.5,1.8,3.6s-0.4,3.3-1.4,4c-0.7,0.6-1.4,0.7-3.2,0.8
	c-0.8,0-2.4,0.1-3.3,0.1c-3.2,0-5.4-0.2-6.4-0.7c-1.1-0.6-1.5-1.4-1.5-2.9c0,0,0-0.2,0-0.4h3.6L229.9,22.5L229.9,22.5z"/>
<g>
	<path class="st1" d="M211.8,30.7c0-0.3-0.1-0.5-0.5-0.5h-0.3l-0.5,0l-0.5,0c-0.6,0-0.6,0-0.8,0c-0.2,0.1-0.3,0.2-0.4,0.4
		c0,0.1,0,0.5,0,0.8c0,0.6,0.1,0.8,0.2,0.9c0.1,0.1,0.3,0.1,0.7,0.1c0.1,0,0.1,0,0.9,0c0.9,0,1,0,1.1-0.3c0-0.1,0-0.1,0-0.2v0V32
		h-1.6v-0.8h2.9v0.6c0,0.7,0,1-0.1,1.2c-0.1,0.4-0.4,0.6-1,0.6c-0.1,0-0.5,0-1.8,0c-1,0-1.4,0-1.6-0.1c-0.5-0.1-0.7-0.3-0.9-0.7
		c-0.1-0.3-0.2-0.6-0.2-1.4c0-0.9,0.1-1.3,0.2-1.6c0.2-0.3,0.5-0.5,1-0.6c0.3,0,0.8-0.1,1.6-0.1c1.2,0,1.5,0,1.8,0.1
		c0.7,0.2,0.9,0.5,0.9,1.4H211.8z"/>
	<path class="st1" d="M218.7,29.3c0.7,0.1,1,0.5,1.1,1.1c0,0.2,0,0.5,0,1c0,1-0.1,1.4-0.5,1.8c-0.3,0.2-0.6,0.3-1.2,0.3
		c-0.2,0-0.8,0-1.2,0c-1,0-1.5,0-1.8-0.1c-0.5-0.1-0.8-0.3-0.9-0.6c-0.2-0.3-0.2-0.6-0.2-1.6c0-0.7,0-0.9,0.1-1.2
		c0.1-0.5,0.4-0.7,0.9-0.8c0.4-0.1,0.8-0.1,1.9-0.1C218,29.3,218.4,29.3,218.7,29.3z M215.5,30.5c-0.2,0.1-0.2,0.3-0.2,1
		c0,0.6,0.1,0.9,0.2,1c0.2,0.1,0.4,0.2,1.4,0.2c1.1,0,1.4,0,1.5-0.2c0.1-0.2,0.2-0.4,0.2-0.9c0-1.1,0-1.1-1.6-1.1
		C215.9,30.3,215.7,30.3,215.5,30.5z"/>
	<path class="st1" d="M220.9,29.3h3.7c0.9,0,1.3,0.1,1.6,0.4c0.2,0.2,0.3,0.5,0.4,1c0,0.2,0,0.5,0,0.7c0,0.4,0,0.8-0.1,1.1
		c-0.1,0.5-0.4,0.9-0.9,1c-0.2,0.1-0.4,0.1-0.9,0.1h-3.9V29.3z M224.3,32.6c0.4,0,0.4,0,0.5-0.1c0.3-0.1,0.4-0.3,0.4-1.1
		c0-0.9-0.2-1.1-0.9-1.1h-2.2v2.2H224.3z"/>
	<path class="st1" d="M227.6,29.3h1.3v4.3h-1.3V29.3z"/>
	<path class="st1" d="M230,29.3h2.1l2.6,3.3l0-3.3h1.2v4.3h-2.1l-2.6-3.2l0,3.2H230V29.3z"/>
	<path class="st1" d="M239.1,29.3h1.7l2.3,4.3h-1.4l-0.4-0.8h-2.8l-0.4,0.8h-1.5L239.1,29.3z M240.8,31.9l-0.9-1.7l-0.9,1.7H240.8z"
		/>
</g>
</svg>
